<?xml version="1.0" encoding="UTF-8"?>
<!DOCTYPE svg PUBLIC "-//W3C//DTD SVG 1.1//EN" "http://www.w3.org/Graphics/SVG/1.1/DTD/svg11.dtd">
<svg xmlns="http://www.w3.org/2000/svg" version="1.1" width="900px" height="600px" style="shape-rendering:geometricPrecision; text-rendering:geometricPrecision; image-rendering:optimizeQuality; fill-rule:evenodd; clip-rule:evenodd" xmlns:xlink="http://www.w3.org/1999/xlink">
<g><path style="opacity:1" fill="#f5f5f5" d="M -0.5,-0.5 C 148.167,-0.5 296.833,-0.5 445.5,-0.5C 438.213,1.7414 432.38,6.07473 428,12.5C 329,191.167 230,369.833 131,548.5C 127.323,566.652 134.156,578.818 151.5,585C 347.5,585.5 543.5,585.667 739.5,585.5C 739.5,590.167 739.5,594.833 739.5,599.5C 492.833,599.5 246.167,599.5 -0.5,599.5C -0.5,399.5 -0.5,199.5 -0.5,-0.5 Z"/></g>
<g><path style="opacity:1" fill="#dee616" d="M 445.5,-0.5 C 448.833,-0.5 452.167,-0.5 455.5,-0.5C 464.22,1.46108 470.72,6.46108 475,14.5C 572.094,192.359 669.427,370.025 767,547.5C 772.353,562.778 768.186,574.611 754.5,583C 749.675,584.895 744.675,585.728 739.5,585.5C 543.5,585.667 347.5,585.5 151.5,585C 134.156,578.818 127.323,566.652 131,548.5C 230,369.833 329,191.167 428,12.5C 432.38,6.07473 438.213,1.7414 445.5,-0.5 Z"/></g>
<g><path style="opacity:1" fill="#f6f6f5" d="M 455.5,-0.5 C 603.5,-0.5 751.5,-0.5 899.5,-0.5C 899.5,199.5 899.5,399.5 899.5,599.5C 846.167,599.5 792.833,599.5 739.5,599.5C 739.5,594.833 739.5,590.167 739.5,585.5C 744.675,585.728 749.675,584.895 754.5,583C 768.186,574.611 772.353,562.778 767,547.5C 669.427,370.025 572.094,192.359 475,14.5C 470.72,6.46108 464.22,1.46108 455.5,-0.5 Z"/></g>
<g><path style="opacity:1" fill="#050502" d="M 174.5,562.5 C 173.833,562.5 173.167,562.5 172.5,562.5C 166.434,557.07 165.934,551.07 171,544.5C 262.5,372.833 354,201.167 445.5,29.5C 449.703,25.5387 453.87,25.5387 458,29.5C 549.989,204.648 641.823,379.814 733.5,555C 733.205,557.923 731.871,560.257 729.5,562C 544.5,562.5 359.5,562.667 174.5,562.5 Z"/></g>
<g><path style="opacity:1" fill="#dfe616" d="M 550.5,237.5 C 549.852,239.931 550.518,242.264 552.5,244.5C 552.062,245.506 551.396,245.506 550.5,244.5C 550.004,242.602 549.337,241.602 548.5,241.5C 538.964,219.404 523.297,213.571 501.5,224C 488.05,236.745 485.883,251.245 495,267.5C 498.035,270.87 501.368,273.87 505,276.5C 505.821,279.554 505.655,282.554 504.5,285.5C 487.54,301.628 471.04,318.294 455,335.5C 454.996,332.169 455.829,329.002 457.5,326C 454.978,324.659 452.311,323.826 449.5,323.5C 447.441,330.845 445.275,338.178 443,345.5C 434.418,350.029 432.252,356.695 436.5,365.5C 432.233,380.633 427.567,395.633 422.5,410.5C 420.529,407.598 418.029,406.598 415,407.5C 410.335,422.155 405.669,436.822 401,451.5C 400.333,453.5 400.333,455.5 401,457.5C 404.528,460.169 407.695,463.169 410.5,466.5C 409.475,466.897 409.308,467.563 410,468.5C 411.255,469.211 412.421,470.044 413.5,471C 412.299,471.903 411.465,473.069 411,474.5C 411.379,469.222 410.379,469.222 408,474.5C 406.075,473.12 404.241,471.62 402.5,470C 401.563,469.308 400.897,469.475 400.5,470.5C 394.685,467.091 388.685,463.925 382.5,461C 375.959,449.797 367.959,439.797 358.5,431C 356.711,430.48 355.044,430.813 353.5,432C 349.116,439.893 342.783,445.393 334.5,448.5C 335.041,443.551 334.208,438.884 332,434.5C 327.159,430.316 321.826,426.982 316,424.5C 310.268,425.245 304.768,426.745 299.5,429C 298.333,430.167 297.167,431.333 296,432.5C 294.504,438.47 293.171,444.47 292,450.5C 289.497,453.502 287.497,456.835 286,460.5C 281.828,462.919 277.828,465.585 274,468.5C 272.873,471.377 272.206,474.377 272,477.5C 266.123,479.625 260.123,481.291 254,482.5C 253.135,484.888 253.968,486.388 256.5,487C 264.159,487.5 271.826,487.666 279.5,487.5C 282.187,487.336 284.854,487.503 287.5,488C 282.167,488.333 276.833,488.667 271.5,489C 293.927,491.419 293.927,492.752 271.5,493C 276.833,493.333 282.167,493.667 287.5,494C 285.167,494.333 282.833,494.667 280.5,495C 284.185,495.914 283.852,496.581 279.5,497C 281.962,498.216 284.629,498.882 287.5,499C 284.721,499.149 284.221,499.983 286,501.5C 286.667,502.833 286.667,504.167 286,505.5C 285.768,504.263 285.268,503.263 284.5,502.5C 282.833,502.5 281.167,502.5 279.5,502.5C 277.308,514.993 274.474,527.326 271,539.5C 268.305,527.192 265.805,514.859 263.5,502.5C 261.167,502.5 258.833,502.5 256.5,502.5C 254.456,515.298 251.79,527.965 248.5,540.5C 245.21,527.965 242.544,515.298 240.5,502.5C 238.396,502.201 236.396,502.534 234.5,503.5C 238.158,517.963 241.492,532.463 244.5,547C 225.167,547.667 205.833,547.667 186.5,547C 274.706,381.421 363.039,215.921 451.5,50.5C 484.767,112.702 517.767,175.035 550.5,237.5 Z"/></g>
<g><path style="opacity:1" fill="#030201" d="M 548.5,241.5 C 550.927,258.65 544.427,270.984 529,278.5C 527.315,308.148 526.649,337.814 527,367.5C 539.055,400.609 551.389,433.609 564,466.5C 564.213,479.965 558.046,484.465 545.5,480C 544.667,479.167 543.833,478.333 543,477.5C 535.137,457.578 527.47,437.578 520,417.5C 517.406,437.104 515.406,456.77 514,476.5C 510.757,484.538 504.923,487.371 496.5,485C 495,483.5 493.5,482 492,480.5C 490.43,474.947 490.097,469.281 491,463.5C 494.518,430.462 497.851,397.462 501,364.5C 496.778,370.475 490.945,373.642 483.5,374C 480.167,374.667 476.833,374.667 473.5,374C 463.97,371.464 454.303,369.964 444.5,369.5C 438.842,384.307 433.842,399.474 429.5,415C 432.31,417.414 434.643,420.247 436.5,423.5C 431.977,439.592 427.144,455.592 422,471.5C 420.951,472.517 419.784,472.684 418.5,472C 415.935,469.92 413.268,468.087 410.5,466.5C 407.695,463.169 404.528,460.169 401,457.5C 400.333,455.5 400.333,453.5 401,451.5C 405.669,436.822 410.335,422.155 415,407.5C 418.029,406.598 420.529,407.598 422.5,410.5C 427.567,395.633 432.233,380.633 436.5,365.5C 432.252,356.695 434.418,350.029 443,345.5C 445.275,338.178 447.441,330.845 449.5,323.5C 452.311,323.826 454.978,324.659 457.5,326C 455.829,329.002 454.996,332.169 455,335.5C 471.04,318.294 487.54,301.628 504.5,285.5C 505.655,282.554 505.821,279.554 505,276.5C 501.368,273.87 498.035,270.87 495,267.5C 485.883,251.245 488.05,236.745 501.5,224C 523.297,213.571 538.964,219.404 548.5,241.5 Z"/></g>
<g><path style="opacity:1" fill="#dfe616" d="M 550.5,237.5 C 604.848,340.865 659.182,444.198 713.5,547.5C 703.652,547.827 693.986,547.494 684.5,546.5C 685.79,545.942 686.623,544.942 687,543.5C 688.494,538.474 687.327,534.308 683.5,531C 679.5,529.667 675.5,528.333 671.5,527C 668.626,523.949 668.959,521.282 672.5,519C 677.03,518.053 681.364,518.553 685.5,520.5C 687.551,516.265 686.218,514.098 681.5,514C 670.005,511.503 664.838,516.003 666,527.5C 666.465,528.931 667.299,530.097 668.5,531C 672.948,533.036 677.448,534.87 682,536.5C 683.591,542.576 681.258,545.243 675,544.5C 671.927,544.636 669.094,543.97 666.5,542.5C 666.44,541.957 666.107,541.624 665.5,541.5C 664.534,543.396 664.201,545.396 664.5,547.5C 661.615,547.806 658.948,547.473 656.5,546.5C 659.604,542.526 660.104,538.193 658,533.5C 653.625,530.372 648.792,528.206 643.5,527C 640.833,524.333 640.833,521.667 643.5,519C 648.196,518.086 652.696,518.586 657,520.5C 657.495,518.527 657.662,516.527 657.5,514.5C 651.266,512.691 645.266,513.191 639.5,516C 635.725,520.703 635.558,525.537 639,530.5C 643.326,532.709 647.826,534.543 652.5,536C 655.25,539.012 654.917,541.679 651.5,544C 646.64,544.968 641.974,544.468 637.5,542.5C 636.548,544.045 636.215,545.712 636.5,547.5C 634.167,547.5 631.833,547.5 629.5,547.5C 630.124,542.608 628.458,541.442 624.5,544C 620.833,544.667 617.167,544.667 613.5,544C 610.71,542.254 609.043,539.754 608.5,536.5C 608.5,535.5 608.5,534.5 608.5,533.5C 616.019,533.825 623.352,533.492 630.5,532.5C 631.589,517.408 624.922,511.575 610.5,515C 602.167,522.714 600.333,531.881 605,542.5C 605.949,544.093 607.115,545.426 608.5,546.5C 602.021,547.491 595.354,547.824 588.5,547.5C 588.334,539.826 588.5,532.159 589,524.5C 591.108,519.231 594.941,517.231 600.5,518.5C 600.5,516.833 600.5,515.167 600.5,513.5C 595.653,512.84 591.819,514.507 589,518.5C 588.51,517.207 588.343,515.873 588.5,514.5C 586.833,514.5 585.167,514.5 583.5,514.5C 583.5,525.5 583.5,536.5 583.5,547.5C 580.167,547.5 576.833,547.5 573.5,547.5C 573.5,536.5 573.5,525.5 573.5,514.5C 571.833,514.5 570.167,514.5 568.5,514.5C 568.657,515.873 568.49,517.207 568,518.5C 561.373,511.533 555.039,511.866 549,519.5C 545.667,527.167 545.667,534.833 549,542.5C 549.949,544.093 551.115,545.426 552.5,546.5C 546.833,547.833 541.167,547.833 535.5,546.5C 538.028,544.11 539.528,541.11 540,537.5C 542.258,528.606 540.092,521.106 533.5,515C 524.137,511.434 517.637,514.268 514,523.5C 513.333,528.5 513.333,533.5 514,538.5C 514.754,541.684 516.254,544.351 518.5,546.5C 512.021,547.491 505.354,547.824 498.5,547.5C 498.137,539.429 498.637,531.429 500,523.5C 502.346,518.636 506.013,517.303 511,519.5C 511.495,517.527 511.662,515.527 511.5,513.5C 505.796,512.436 501.629,514.436 499,519.5C 498.506,517.866 498.34,516.199 498.5,514.5C 496.833,514.5 495.167,514.5 493.5,514.5C 493.5,525.5 493.5,536.5 493.5,547.5C 484.833,547.5 476.167,547.5 467.5,547.5C 467.5,541.833 467.5,536.167 467.5,530.5C 483.894,532.608 490.394,525.608 487,509.5C 485.437,506.272 482.937,504.105 479.5,503C 473.843,502.501 468.176,502.334 462.5,502.5C 462.5,517.5 462.5,532.5 462.5,547.5C 453.5,547.5 444.5,547.5 435.5,547.5C 435.826,539.316 435.492,531.316 434.5,523.5C 433.435,515.185 428.768,512.018 420.5,514C 418.376,515.122 416.543,516.622 415,518.5C 414.51,517.207 414.343,515.873 414.5,514.5C 412.833,514.5 411.167,514.5 409.5,514.5C 409.5,525.5 409.5,536.5 409.5,547.5C 406.167,547.5 402.833,547.5 399.5,547.5C 399.5,532.5 399.5,517.5 399.5,502.5C 397.833,502.5 396.167,502.5 394.5,502.5C 393.504,517.324 393.171,532.324 393.5,547.5C 385.833,547.5 378.167,547.5 370.5,547.5C 365.216,541.88 359.883,536.213 354.5,530.5C 359.318,525.181 364.318,520.015 369.5,515C 367.5,514.333 365.5,514.333 363.5,515C 359,519.5 354.5,524 350,528.5C 349.5,519.173 349.334,509.839 349.5,500.5C 347.833,500.5 346.167,500.5 344.5,500.5C 344.5,516.167 344.5,531.833 344.5,547.5C 338.5,547.5 332.5,547.5 326.5,547.5C 326.137,539.429 326.637,531.429 328,523.5C 330.457,518.814 334.123,517.481 339,519.5C 339.495,517.527 339.662,515.527 339.5,513.5C 334.906,512.657 331.239,513.991 328.5,517.5C 327.566,516.432 327.232,515.099 327.5,513.5C 325.5,513.5 323.5,513.5 321.5,513.5C 321.5,524.833 321.5,536.167 321.5,547.5C 316.968,547.818 312.634,547.485 308.5,546.5C 310.562,544.59 312.062,542.257 313,539.5C 313.667,534.167 313.667,528.833 313,523.5C 309.377,514.275 302.877,511.441 293.5,515C 286.908,521.106 284.742,528.606 287,537.5C 287.663,541.035 289.163,544.035 291.5,546.5C 286.36,547.488 281.026,547.821 275.5,547.5C 278.66,532.528 281.66,517.528 284.5,502.5C 285.268,503.263 285.768,504.263 286,505.5C 286.667,504.167 286.667,502.833 286,501.5C 284.221,499.983 284.721,499.149 287.5,499C 284.629,498.882 281.962,498.216 279.5,497C 283.852,496.581 284.185,495.914 280.5,495C 282.833,494.667 285.167,494.333 287.5,494C 282.167,493.667 276.833,493.333 271.5,493C 293.927,492.752 293.927,491.419 271.5,489C 276.833,488.667 282.167,488.333 287.5,488C 284.854,487.503 282.187,487.336 279.5,487.5C 302.072,483.361 324.739,483.528 347.5,488C 369.513,488.666 391.513,488.333 413.5,487C 415.82,485.512 415.987,483.679 414,481.5C 409.626,477.621 405.126,473.954 400.5,470.5C 400.897,469.475 401.563,469.308 402.5,470C 404.241,471.62 406.075,473.12 408,474.5C 410.379,469.222 411.379,469.222 411,474.5C 411.465,473.069 412.299,471.903 413.5,471C 412.421,470.044 411.255,469.211 410,468.5C 409.308,467.563 409.475,466.897 410.5,466.5C 413.268,468.087 415.935,469.92 418.5,472C 419.784,472.684 420.951,472.517 422,471.5C 427.144,455.592 431.977,439.592 436.5,423.5C 434.643,420.247 432.31,417.414 429.5,415C 433.842,399.474 438.842,384.307 444.5,369.5C 454.303,369.964 463.97,371.464 473.5,374C 476.833,374.667 480.167,374.667 483.5,374C 490.945,373.642 496.778,370.475 501,364.5C 497.851,397.462 494.518,430.462 491,463.5C 490.097,469.281 490.43,474.947 492,480.5C 493.5,482 495,483.5 496.5,485C 504.923,487.371 510.757,484.538 514,476.5C 515.406,456.77 517.406,437.104 520,417.5C 527.47,437.578 535.137,457.578 543,477.5C 543.833,478.333 544.667,479.167 545.5,480C 558.046,484.465 564.213,479.965 564,466.5C 551.389,433.609 539.055,400.609 527,367.5C 526.649,337.814 527.315,308.148 529,278.5C 544.427,270.984 550.927,258.65 548.5,241.5C 549.337,241.602 550.004,242.602 550.5,244.5C 551.396,245.506 552.062,245.506 552.5,244.5C 550.518,242.264 549.852,239.931 550.5,237.5 Z"/></g>
<g><path style="opacity:1" fill="#dce318" d="M 501.5,320.5 C 502.525,320.897 502.692,321.563 502,322.5C 496,331.167 490,339.833 484,348.5C 481.108,350.673 477.941,351.006 474.5,349.5C 483.889,340.114 492.889,330.447 501.5,320.5 Z"/></g>
<g><path style="opacity:1" fill="#030201" d="M 400.5,470.5 C 405.126,473.954 409.626,477.621 414,481.5C 415.987,483.679 415.82,485.512 413.5,487C 391.513,488.333 369.513,488.666 347.5,488C 324.739,483.528 302.072,483.361 279.5,487.5C 271.826,487.666 264.159,487.5 256.5,487C 253.968,486.388 253.135,484.888 254,482.5C 260.123,481.291 266.123,479.625 272,477.5C 272.206,474.377 272.873,471.377 274,468.5C 277.828,465.585 281.828,462.919 286,460.5C 287.497,456.835 289.497,453.502 292,450.5C 293.171,444.47 294.504,438.47 296,432.5C 297.167,431.333 298.333,430.167 299.5,429C 304.768,426.745 310.268,425.245 316,424.5C 321.826,426.982 327.159,430.316 332,434.5C 334.208,438.884 335.041,443.551 334.5,448.5C 342.783,445.393 349.116,439.893 353.5,432C 355.044,430.813 356.711,430.48 358.5,431C 367.959,439.797 375.959,449.797 382.5,461C 388.685,463.925 394.685,467.091 400.5,470.5 Z"/></g>
<g><path style="opacity:1" fill="#dee517" d="M 477.5,508.5 C 481.153,509.786 482.82,512.453 482.5,516.5C 482.82,520.547 481.153,523.214 477.5,524.5C 474.5,524.5 471.5,524.5 468.5,524.5C 468.5,519.167 468.5,513.833 468.5,508.5C 471.5,508.5 474.5,508.5 477.5,508.5 Z"/></g>
<g><path style="opacity:1" fill="#6b6d0a" d="M 394.5,502.5 C 394.5,517.833 394.5,533.167 394.5,548.5C 386.316,548.826 378.316,548.492 370.5,547.5C 378.167,547.5 385.833,547.5 393.5,547.5C 393.171,532.324 393.504,517.324 394.5,502.5 Z"/></g>
<g><path style="opacity:1" fill="#a7af14" d="M 477.5,508.5 C 474.5,508.5 471.5,508.5 468.5,508.5C 468.5,513.833 468.5,519.167 468.5,524.5C 471.5,524.5 474.5,524.5 477.5,524.5C 474.375,525.479 471.042,525.813 467.5,525.5C 467.5,519.5 467.5,513.5 467.5,507.5C 471.042,507.187 474.375,507.521 477.5,508.5 Z"/></g>
<g><path style="opacity:1" fill="#dfe617" d="M 613.5,518.5 C 621.497,517.169 625.497,520.503 625.5,528.5C 619.833,528.5 614.167,528.5 608.5,528.5C 608.075,524.017 609.741,520.683 613.5,518.5 Z"/></g>
<g><path style="opacity:1" fill="#dee517" d="M 296.5,518.5 C 302.116,517.224 305.949,519.224 308,524.5C 308.667,528.833 308.667,533.167 308,537.5C 306.761,544.072 302.927,546.238 296.5,544C 289.867,535.501 289.867,527.001 296.5,518.5 Z"/></g>
<g><path style="opacity:1" fill="#dfe617" d="M 429.5,524.5 C 429.5,532.167 429.5,539.833 429.5,547.5C 424.5,547.5 419.5,547.5 414.5,547.5C 414.094,539.083 414.594,530.749 416,522.5C 418.602,518.788 422.102,517.622 426.5,519C 428.607,520.264 429.607,522.097 429.5,524.5 Z"/></g>
<g><path style="opacity:1" fill="#dfe617" d="M 523.5,518.5 C 529.468,517.297 533.301,519.631 535,525.5C 536.646,532.523 535.146,538.689 530.5,544C 524.341,545.839 520.508,543.672 519,537.5C 518.333,533.167 518.333,528.833 519,524.5C 520.332,522.34 521.832,520.34 523.5,518.5 Z"/></g>
<g><path style="opacity:1" fill="#858711" d="M 630.5,532.5 C 623.352,533.492 616.019,533.825 608.5,533.5C 608.5,534.5 608.5,535.5 608.5,536.5C 607.566,535.432 607.232,534.099 607.5,532.5C 615.167,532.5 622.833,532.5 630.5,532.5 Z"/></g>
<g><path style="opacity:1" fill="#72760d" d="M 328.5,517.5 C 328.217,518.289 327.717,518.956 327,519.5C 326.506,517.866 326.34,516.199 326.5,514.5C 325.167,514.5 323.833,514.5 322.5,514.5C 322.828,525.679 322.495,536.679 321.5,547.5C 321.5,536.167 321.5,524.833 321.5,513.5C 323.5,513.5 325.5,513.5 327.5,513.5C 327.232,515.099 327.566,516.432 328.5,517.5 Z"/></g>
<g><path style="opacity:1" fill="#dde417" d="M 267.5,546.5 C 262.36,547.488 257.026,547.821 251.5,547.5C 254.134,534.833 256.968,522.166 260,509.5C 263.206,521.698 265.706,534.031 267.5,546.5 Z"/></g>
<g><path style="opacity:1" fill="#dce417" d="M 556.5,518.5 C 562.116,517.224 565.949,519.224 568,524.5C 568.826,529.589 568.492,534.589 567,539.5C 564.188,544.627 560.355,545.627 555.5,542.5C 549.994,534.237 550.327,526.237 556.5,518.5 Z"/></g>
<g><path style="opacity:1" fill="#e1e818" d="M 362.5,546.5 C 358.366,547.485 354.032,547.818 349.5,547.5C 349.334,542.489 349.501,537.489 350,532.5C 354.003,537.335 358.17,542.002 362.5,546.5 Z"/></g>
<g><path style="opacity:1" fill="#ecf519" d="M 567.5,543.5 C 568.434,544.568 568.768,545.901 568.5,547.5C 567.448,547.649 566.448,547.483 565.5,547C 566.823,546.184 567.489,545.017 567.5,543.5 Z"/></g>
<g><path style="opacity:1" fill="#464906" d="M 267.5,546.5 C 268.043,546.56 268.376,546.893 268.5,547.5C 262.68,548.816 257.013,548.816 251.5,547.5C 257.026,547.821 262.36,547.488 267.5,546.5 Z"/></g>
<g><path style="opacity:1" fill="#4b4d07" d="M 291.5,546.5 C 292.043,546.56 292.376,546.893 292.5,547.5C 286.68,548.816 281.013,548.816 275.5,547.5C 281.026,547.821 286.36,547.488 291.5,546.5 Z"/></g>
<g><path style="opacity:1" fill="#464907" d="M 308.5,546.5 C 312.634,547.485 316.968,547.818 321.5,547.5C 316.985,548.812 312.318,548.812 307.5,547.5C 307.624,546.893 307.957,546.56 308.5,546.5 Z"/></g>
<g><path style="opacity:1" fill="#4b4e08" d="M 362.5,546.5 C 363.043,546.56 363.376,546.893 363.5,547.5C 358.682,548.812 354.015,548.812 349.5,547.5C 354.032,547.818 358.366,547.485 362.5,546.5 Z"/></g>
<g><path style="opacity:1" fill="#4f550a" d="M 429.5,524.5 C 430.492,532.316 430.826,540.316 430.5,548.5C 424.974,548.821 419.64,548.488 414.5,547.5C 419.5,547.5 424.5,547.5 429.5,547.5C 429.5,539.833 429.5,532.167 429.5,524.5 Z"/></g>
<g><path style="opacity:1" fill="#595d08" d="M 434.5,523.5 C 435.492,531.316 435.826,539.316 435.5,547.5C 444.5,547.5 453.5,547.5 462.5,547.5C 453.348,548.494 444.015,548.827 434.5,548.5C 434.5,540.167 434.5,531.833 434.5,523.5 Z"/></g>
<g><path style="opacity:1" fill="#474a08" d="M 518.5,546.5 C 519.043,546.56 519.376,546.893 519.5,547.5C 512.344,548.819 505.344,548.819 498.5,547.5C 505.354,547.824 512.021,547.491 518.5,546.5 Z"/></g>
<g><path style="opacity:1" fill="#494e09" d="M 535.5,546.5 C 541.167,547.833 546.833,547.833 552.5,546.5C 553.043,546.56 553.376,546.893 553.5,547.5C 547.167,548.833 540.833,548.833 534.5,547.5C 534.624,546.893 534.957,546.56 535.5,546.5 Z"/></g>
<g><path style="opacity:1" fill="#494c08" d="M 608.5,546.5 C 609.043,546.56 609.376,546.893 609.5,547.5C 602.344,548.819 595.344,548.819 588.5,547.5C 595.354,547.824 602.021,547.491 608.5,546.5 Z"/></g>
<g><path style="opacity:1" fill="#53550b" d="M 666.5,542.5 C 665.539,544.265 665.205,546.265 665.5,548.5C 662.102,548.82 658.768,548.487 655.5,547.5C 655.624,546.893 655.957,546.56 656.5,546.5C 658.948,547.473 661.615,547.806 664.5,547.5C 664.201,545.396 664.534,543.396 665.5,541.5C 666.107,541.624 666.44,541.957 666.5,542.5 Z"/></g>
<g><path style="opacity:1" fill="#454907" d="M 684.5,546.5 C 693.986,547.494 703.652,547.827 713.5,547.5C 703.659,548.823 693.659,548.823 683.5,547.5C 683.624,546.893 683.957,546.56 684.5,546.5 Z"/></g>
<g><path style="opacity:1" fill="#f8fe1b" d="M 172.5,562.5 C 173.167,562.5 173.833,562.5 174.5,562.5C 358.666,563.333 543,563.833 727.5,564C 542.833,564.667 358.167,564.667 173.5,564C 172.833,563.667 172.167,563.333 171.5,563C 171.728,562.601 172.062,562.435 172.5,562.5 Z"/></g>
</svg>
