<?xml version="1.0" encoding="UTF-8"?>
<!DOCTYPE svg PUBLIC "-//W3C//DTD SVG 1.1//EN" "http://www.w3.org/Graphics/SVG/1.1/DTD/svg11.dtd">
<svg xmlns="http://www.w3.org/2000/svg" version="1.1" width="512px" height="512px" style="shape-rendering:geometricPrecision; text-rendering:geometricPrecision; image-rendering:optimizeQuality; fill-rule:evenodd; clip-rule:evenodd" xmlns:xlink="http://www.w3.org/1999/xlink">
<g><path style="opacity:1" fill="#e4e6ec" d="M 232.5,-0.5 C 247.5,-0.5 262.5,-0.5 277.5,-0.5C 304.527,2.09022 330.527,8.75688 355.5,19.5C 354.501,73.9975 354.168,128.664 354.5,183.5C 352.555,164.108 344.555,147.608 330.5,134C 320.312,127.061 309.312,125.228 297.5,128.5C 298.347,127.034 299.68,126.2 301.5,126C 255.501,125.5 209.501,125.333 163.5,125.5C 163.5,89.1667 163.5,52.8333 163.5,16.5C 173.699,11.9343 184.365,8.43427 195.5,6C 207.871,3.22232 220.205,1.05565 232.5,-0.5 Z"/></g>
<g><path style="opacity:0.991" fill="#fe7069" d="M 163.5,16.5 C 163.5,52.8333 163.5,89.1667 163.5,125.5C 150.163,125.333 136.829,125.5 123.5,126C 90.5627,132.77 70.896,152.604 64.5,185.5C 63.3345,259.999 63.1678,334.666 64,409.5C 64.5133,408.473 65.0133,407.473 65.5,406.5C 71.4751,398.185 77.4751,389.852 83.5,381.5C 90.1667,390.5 96.8333,399.5 103.5,408.5C 110.167,399.5 116.833,390.5 123.5,381.5C 130.167,390.5 136.833,399.5 143.5,408.5C 150.167,399.5 156.833,390.5 163.5,381.5C 169.923,390.678 176.589,399.678 183.5,408.5C 190.167,399.5 196.833,390.5 203.5,381.5C 210.246,390.659 216.746,399.992 223,409.5C 229.601,399.951 236.434,390.618 243.5,381.5C 249.528,389.695 255.361,398.028 261,406.5C 261.167,335.665 261.667,264.999 262.5,194.5C 293.167,194.5 323.833,194.5 354.5,194.5C 354.5,190.833 354.5,187.167 354.5,183.5C 354.168,128.664 354.501,73.9975 355.5,19.5C 422.175,49.0091 469.008,97.6758 496,165.5C 503.805,187.711 508.972,210.378 511.5,233.5C 511.5,248.167 511.5,262.833 511.5,277.5C 507.354,319.603 494.021,358.603 471.5,394.5C 470.501,341.669 470.168,288.669 470.5,235.5C 407.833,235.5 345.167,235.5 282.5,235.5C 282.5,310.167 282.5,384.833 282.5,459.5C 325.003,459.168 367.337,459.501 409.5,460.5C 370.335,489.739 326.335,506.739 277.5,511.5C 262.833,511.5 248.167,511.5 233.5,511.5C 133.195,499.018 61.6947,447.018 19,355.5C 8.70332,330.313 2.20332,304.313 -0.5,277.5C -0.5,262.833 -0.5,248.167 -0.5,233.5C 10.0943,143.445 54.4276,75.612 132.5,30C 142.498,24.616 152.831,20.116 163.5,16.5 Z"/></g>
<g><path style="opacity:1" fill="#fefefe" d="M 163.5,125.5 C 209.501,125.333 255.501,125.5 301.5,126C 299.68,126.2 298.347,127.034 297.5,128.5C 289.608,131.047 283.108,135.714 278,142.5C 266.951,158.02 261.784,175.353 262.5,194.5C 261.667,264.999 261.167,335.665 261,406.5C 255.361,398.028 249.528,389.695 243.5,381.5C 236.434,390.618 229.601,399.951 223,409.5C 216.746,399.992 210.246,390.659 203.5,381.5C 196.833,390.5 190.167,399.5 183.5,408.5C 176.589,399.678 169.923,390.678 163.5,381.5C 156.833,390.5 150.167,399.5 143.5,408.5C 136.833,399.5 130.167,390.5 123.5,381.5C 116.833,390.5 110.167,399.5 103.5,408.5C 96.8333,399.5 90.1667,390.5 83.5,381.5C 77.4751,389.852 71.4751,398.185 65.5,406.5C 64.5008,333.002 64.1674,259.335 64.5,185.5C 70.896,152.604 90.5627,132.77 123.5,126C 136.829,125.5 150.163,125.333 163.5,125.5 Z"/></g>
<g><path style="opacity:1" fill="#c6cbd6" d="M 354.5,183.5 C 354.5,187.167 354.5,190.833 354.5,194.5C 323.833,194.5 293.167,194.5 262.5,194.5C 261.784,175.353 266.951,158.02 278,142.5C 283.108,135.714 289.608,131.047 297.5,128.5C 309.312,125.228 320.312,127.061 330.5,134C 344.555,147.608 352.555,164.108 354.5,183.5 Z"/></g>
<g><path style="opacity:1" fill="#83cf8f" d="M 117.5,173.5 C 146.5,173.5 175.5,173.5 204.5,173.5C 204.5,175.833 204.5,178.167 204.5,180.5C 175.5,180.5 146.5,180.5 117.5,180.5C 117.5,178.167 117.5,175.833 117.5,173.5 Z"/></g>
<g><path style="opacity:1" fill="#b9e4c0" d="M 117.5,173.5 C 146.662,172.502 175.995,172.169 205.5,172.5C 205.5,175.5 205.5,178.5 205.5,181.5C 175.995,181.831 146.662,181.498 117.5,180.5C 146.5,180.5 175.5,180.5 204.5,180.5C 204.5,178.167 204.5,175.833 204.5,173.5C 175.5,173.5 146.5,173.5 117.5,173.5 Z"/></g>
<g><path style="opacity:1" fill="#ffe35a" d="M 97.5,194.5 C 100.5,194.5 103.5,194.5 106.5,194.5C 106.5,196.5 106.5,198.5 106.5,200.5C 110.548,200.441 113.715,202.108 116,205.5C 118.27,210.246 119.437,215.246 119.5,220.5C 115.5,220.5 111.5,220.5 107.5,220.5C 108.862,211.01 105.362,208.343 97,212.5C 95.993,217.111 96.6597,221.445 99,225.5C 105.333,230.5 111,236.167 116,242.5C 118.947,250.006 119.281,257.673 117,265.5C 114.434,269.232 110.934,271.566 106.5,272.5C 106.5,274.5 106.5,276.5 106.5,278.5C 103.167,278.5 99.8333,278.5 96.5,278.5C 96.5,276.5 96.5,274.5 96.5,272.5C 90.6164,271.119 86.7831,267.453 85,261.5C 84.5012,257.514 84.3345,253.514 84.5,249.5C 88.1667,249.5 91.8333,249.5 95.5,249.5C 95.335,252.85 95.5017,256.183 96,259.5C 102.715,264.625 106.548,262.958 107.5,254.5C 107.485,252.366 106.985,250.366 106,248.5C 101.354,243.523 96.3536,238.856 91,234.5C 82.2222,223.477 82.3888,212.644 91.5,202C 93.3506,201.163 95.1839,200.329 97,199.5C 97.4935,197.866 97.6602,196.199 97.5,194.5 Z"/></g>
<g><path style="opacity:1" fill="#c7ccd6" d="M 143.5,194.5 C 176.167,194.5 208.833,194.5 241.5,194.5C 241.5,197.167 241.5,199.833 241.5,202.5C 208.833,202.5 176.167,202.5 143.5,202.5C 143.5,199.833 143.5,197.167 143.5,194.5 Z"/></g>
<g><path style="opacity:1" fill="#ffe7e6" d="M 64.5,185.5 C 64.1674,259.335 64.5008,333.002 65.5,406.5C 65.0133,407.473 64.5133,408.473 64,409.5C 63.1678,334.666 63.3345,259.999 64.5,185.5 Z"/></g>
<g><path style="opacity:1" fill="#c6cbd6" d="M 143.5,224.5 C 176.167,224.5 208.833,224.5 241.5,224.5C 241.5,227.167 241.5,229.833 241.5,232.5C 208.833,232.5 176.167,232.5 143.5,232.5C 143.5,229.833 143.5,227.167 143.5,224.5 Z"/></g>
<g><path style="opacity:0.996" fill="#5f7290" d="M 471.5,394.5 C 471.5,416.5 471.5,438.5 471.5,460.5C 450.833,460.5 430.167,460.5 409.5,460.5C 367.337,459.501 325.003,459.168 282.5,459.5C 282.5,384.833 282.5,310.167 282.5,235.5C 345.167,235.5 407.833,235.5 470.5,235.5C 470.168,288.669 470.501,341.669 471.5,394.5 Z"/></g>
<g><path style="opacity:1" fill="#ebeff0" d="M 295.5,247.5 C 349.5,247.5 403.5,247.5 457.5,247.5C 457.5,259.167 457.5,270.833 457.5,282.5C 403.5,282.5 349.5,282.5 295.5,282.5C 295.5,270.833 295.5,259.167 295.5,247.5 Z"/></g>
<g><path style="opacity:1" fill="#888787" d="M 437.5,251.5 C 443.204,250.436 447.371,252.436 450,257.5C 450.667,261.833 450.667,266.167 450,270.5C 446.608,276.467 441.774,277.967 435.5,275C 431.82,270.098 430.653,264.598 432,258.5C 432.967,255.379 434.8,253.046 437.5,251.5 Z"/></g>
<g><path style="opacity:1" fill="#c6cbd6" d="M 143.5,254.5 C 176.167,254.5 208.833,254.5 241.5,254.5C 241.5,257.167 241.5,259.833 241.5,262.5C 208.833,262.5 176.167,262.5 143.5,262.5C 143.5,259.833 143.5,257.167 143.5,254.5 Z"/></g>
<g><path style="opacity:1" fill="#e6eaeb" d="M 438.5,254.5 C 447.088,255.336 449.921,260.003 447,268.5C 444.168,274.201 440.502,274.867 436,270.5C 435.333,266.167 435.333,261.833 436,257.5C 437.045,256.627 437.878,255.627 438.5,254.5 Z"/></g>
<g><path style="opacity:1" fill="#c8ccd7" d="M 142.5,284.5 C 175.5,284.5 208.5,284.5 241.5,284.5C 241.5,287.167 241.5,289.833 241.5,292.5C 208.5,292.5 175.5,292.5 142.5,292.5C 142.5,289.833 142.5,287.167 142.5,284.5 Z"/></g>
<g><path style="opacity:1" fill="#fcfcfd" d="M 302.5,308.5 C 310.507,308.334 318.507,308.5 326.5,309C 327.333,309.833 328.167,310.667 329,311.5C 329.667,319.167 329.667,326.833 329,334.5C 328.167,335.333 327.333,336.167 326.5,337C 318.5,337.667 310.5,337.667 302.5,337C 302,336.5 301.5,336 301,335.5C 300.333,327.167 300.333,318.833 301,310.5C 301.717,309.956 302.217,309.289 302.5,308.5 Z"/></g>
<g><path style="opacity:1" fill="#fcfcfd" d="M 340.5,308.5 C 348.174,308.334 355.841,308.5 363.5,309C 364.416,309.374 365.25,309.874 366,310.5C 366.816,319.079 366.649,327.579 365.5,336C 357.27,337.604 348.937,337.937 340.5,337C 339.667,336.167 338.833,335.333 338,334.5C 337.333,326.833 337.333,319.167 338,311.5C 339.045,310.627 339.878,309.627 340.5,308.5 Z"/></g>
<g><path style="opacity:1" fill="#82cd8f" d="M 377.5,308.5 C 385.507,308.334 393.507,308.5 401.5,309C 402.333,309.833 403.167,310.667 404,311.5C 404.667,319.167 404.667,326.833 404,334.5C 403.167,335.333 402.333,336.167 401.5,337C 393.5,337.667 385.5,337.667 377.5,337C 377,336.5 376.5,336 376,335.5C 375.333,327.167 375.333,318.833 376,310.5C 376.717,309.956 377.217,309.289 377.5,308.5 Z"/></g>
<g><path style="opacity:1" fill="#fce157" d="M 415.5,308.5 C 423.174,308.334 430.841,308.5 438.5,309C 439.416,309.374 440.25,309.874 441,310.5C 441.816,319.079 441.649,327.579 440.5,336C 432.27,337.604 423.937,337.937 415.5,337C 414.667,336.167 413.833,335.333 413,334.5C 412.333,326.833 412.333,319.167 413,311.5C 414.045,310.627 414.878,309.627 415.5,308.5 Z"/></g>
<g><path style="opacity:1" fill="#ffb2af" d="M 142.5,314.5 C 159.167,314.5 175.833,314.5 192.5,314.5C 192.5,317.5 192.5,320.5 192.5,323.5C 175.833,323.5 159.167,323.5 142.5,323.5C 142.5,320.5 142.5,317.5 142.5,314.5 Z"/></g>
<g><path style="opacity:1" fill="#fe7068" d="M 143.5,315.5 C 159.5,315.5 175.5,315.5 191.5,315.5C 191.5,317.833 191.5,320.167 191.5,322.5C 175.5,322.5 159.5,322.5 143.5,322.5C 143.5,320.167 143.5,317.833 143.5,315.5 Z"/></g>
<g><path style="opacity:1" fill="#fbfcfc" d="M 302.5,345.5 C 310.507,345.334 318.507,345.5 326.5,346C 327.333,346.833 328.167,347.667 329,348.5C 329.667,355.833 329.667,363.167 329,370.5C 328.626,371.416 328.126,372.25 327.5,373C 319.605,374.601 311.605,374.934 303.5,374C 302.667,373.167 301.833,372.333 301,371.5C 300.333,363.5 300.333,355.5 301,347.5C 301.717,346.956 302.217,346.289 302.5,345.5 Z"/></g>
<g><path style="opacity:1" fill="#fbfbfc" d="M 340.5,345.5 C 348.507,345.334 356.507,345.5 364.5,346C 365,346.5 365.5,347 366,347.5C 366.667,355.5 366.667,363.5 366,371.5C 365.167,372.333 364.333,373.167 363.5,374C 355.833,374.667 348.167,374.667 340.5,374C 340,373.5 339.5,373 339,372.5C 337.399,364.605 337.066,356.605 338,348.5C 338.698,347.309 339.531,346.309 340.5,345.5 Z"/></g>
<g><path style="opacity:1" fill="#fbfbfc" d="M 377.5,345.5 C 385.507,345.334 393.507,345.5 401.5,346C 402.308,346.308 402.975,346.808 403.5,347.5C 404.635,355.451 404.802,363.451 404,371.5C 403.5,372 403,372.5 402.5,373C 394.605,374.601 386.605,374.934 378.5,374C 377.667,373.167 376.833,372.333 376,371.5C 375.333,363.5 375.333,355.5 376,347.5C 376.717,346.956 377.217,346.289 377.5,345.5 Z"/></g>
<g><path style="opacity:1" fill="#fbfbfc" d="M 415.5,345.5 C 423.507,345.334 431.507,345.5 439.5,346C 440,346.5 440.5,347 441,347.5C 441.667,355.5 441.667,363.5 441,371.5C 440.167,372.333 439.333,373.167 438.5,374C 430.833,374.667 423.167,374.667 415.5,374C 415,373.5 414.5,373 414,372.5C 412.399,364.605 412.066,356.605 413,348.5C 413.698,347.309 414.531,346.309 415.5,345.5 Z"/></g>
<g><path style="opacity:1" fill="#c6cbd6" d="M 71.5,347.5 C 74.1667,347.5 76.8333,347.5 79.5,347.5C 79.5,350.167 79.5,352.833 79.5,355.5C 76.8333,355.5 74.1667,355.5 71.5,355.5C 71.5,352.833 71.5,350.167 71.5,347.5 Z"/></g>
<g><path style="opacity:1" fill="#c5cbd5" d="M 90.5,347.5 C 93.1667,347.5 95.8333,347.5 98.5,347.5C 98.5,350.167 98.5,352.833 98.5,355.5C 95.8333,355.5 93.1667,355.5 90.5,355.5C 90.5,352.833 90.5,350.167 90.5,347.5 Z"/></g>
<g><path style="opacity:1" fill="#c5cbd5" d="M 109.5,347.5 C 112.167,347.5 114.833,347.5 117.5,347.5C 117.5,350.167 117.5,352.833 117.5,355.5C 114.833,355.5 112.167,355.5 109.5,355.5C 109.5,352.833 109.5,350.167 109.5,347.5 Z"/></g>
<g><path style="opacity:1" fill="#c5cbd5" d="M 128.5,347.5 C 131.167,347.5 133.833,347.5 136.5,347.5C 136.5,350.167 136.5,352.833 136.5,355.5C 133.833,355.5 131.167,355.5 128.5,355.5C 128.5,352.833 128.5,350.167 128.5,347.5 Z"/></g>
<g><path style="opacity:1" fill="#c5cbd5" d="M 147.5,347.5 C 150.167,347.5 152.833,347.5 155.5,347.5C 155.5,350.167 155.5,352.833 155.5,355.5C 152.833,355.5 150.167,355.5 147.5,355.5C 147.5,352.833 147.5,350.167 147.5,347.5 Z"/></g>
<g><path style="opacity:1" fill="#c5cbd5" d="M 166.5,347.5 C 169.167,347.5 171.833,347.5 174.5,347.5C 174.5,350.167 174.5,352.833 174.5,355.5C 171.833,355.5 169.167,355.5 166.5,355.5C 166.5,352.833 166.5,350.167 166.5,347.5 Z"/></g>
<g><path style="opacity:1" fill="#c5cbd5" d="M 185.5,347.5 C 188.167,347.5 190.833,347.5 193.5,347.5C 193.5,350.167 193.5,352.833 193.5,355.5C 190.833,355.5 188.167,355.5 185.5,355.5C 185.5,352.833 185.5,350.167 185.5,347.5 Z"/></g>
<g><path style="opacity:1" fill="#c5cbd5" d="M 204.5,347.5 C 207.167,347.5 209.833,347.5 212.5,347.5C 212.5,350.167 212.5,352.833 212.5,355.5C 209.833,355.5 207.167,355.5 204.5,355.5C 204.5,352.833 204.5,350.167 204.5,347.5 Z"/></g>
<g><path style="opacity:1" fill="#c5cbd5" d="M 223.5,347.5 C 226.167,347.5 228.833,347.5 231.5,347.5C 231.5,350.167 231.5,352.833 231.5,355.5C 228.833,355.5 226.167,355.5 223.5,355.5C 223.5,352.833 223.5,350.167 223.5,347.5 Z"/></g>
<g><path style="opacity:1" fill="#c5cbd5" d="M 242.5,347.5 C 245.167,347.5 247.833,347.5 250.5,347.5C 250.5,350.167 250.5,352.833 250.5,355.5C 247.833,355.5 245.167,355.5 242.5,355.5C 242.5,352.833 242.5,350.167 242.5,347.5 Z"/></g>
<g><path style="opacity:1" fill="#fafbfc" d="M 303.5,381.5 C 310.841,381.334 318.174,381.5 325.5,382C 326.931,382.465 328.097,383.299 329,384.5C 329.667,392.167 329.667,399.833 329,407.5C 328.626,408.416 328.126,409.25 327.5,410C 319.167,410.667 310.833,410.667 302.5,410C 302,409.5 301.5,409 301,408.5C 300.333,400.5 300.333,392.5 301,384.5C 302.045,383.627 302.878,382.627 303.5,381.5 Z"/></g>
<g><path style="opacity:1" fill="#fafbfc" d="M 341.5,381.5 C 348.841,381.334 356.174,381.5 363.5,382C 364.333,382.833 365.167,383.667 366,384.5C 366.667,392.5 366.667,400.5 366,408.5C 365.5,409 365,409.5 364.5,410C 355.921,410.816 347.421,410.649 339,409.5C 337.396,401.27 337.063,392.937 338,384.5C 339.145,383.364 340.312,382.364 341.5,381.5 Z"/></g>
<g><path style="opacity:1" fill="#fafbfc" d="M 378.5,381.5 C 385.841,381.334 393.174,381.5 400.5,382C 401.931,382.465 403.097,383.299 404,384.5C 404.667,392.167 404.667,399.833 404,407.5C 403.626,408.416 403.126,409.25 402.5,410C 394.167,410.667 385.833,410.667 377.5,410C 377,409.5 376.5,409 376,408.5C 375.333,400.5 375.333,392.5 376,384.5C 377.045,383.627 377.878,382.627 378.5,381.5 Z"/></g>
<g><path style="opacity:1" fill="#fafbfc" d="M 416.5,381.5 C 423.841,381.334 431.174,381.5 438.5,382C 439.333,382.833 440.167,383.667 441,384.5C 441.667,392.5 441.667,400.5 441,408.5C 440.5,409 440,409.5 439.5,410C 430.921,410.816 422.421,410.649 414,409.5C 412.396,401.27 412.063,392.937 413,384.5C 414.145,383.364 415.312,382.364 416.5,381.5 Z"/></g>
<g><path style="opacity:1" fill="#fcfcfd" d="M 303.5,418.5 C 311.174,418.334 318.841,418.5 326.5,419C 327.333,419.833 328.167,420.667 329,421.5C 329.667,429.167 329.667,436.833 329,444.5C 328.167,445.333 327.333,446.167 326.5,447C 318.5,447.667 310.5,447.667 302.5,447C 302,446.5 301.5,446 301,445.5C 300.333,437.5 300.333,429.5 301,421.5C 301.698,420.309 302.531,419.309 303.5,418.5 Z"/></g>
<g><path style="opacity:1" fill="#fcfcfd" d="M 340.5,418.5 C 348.174,418.334 355.841,418.5 363.5,419C 364.308,419.308 364.975,419.808 365.5,420.5C 366.636,428.785 366.803,437.118 366,445.5C 365.5,446 365,446.5 364.5,447C 356.5,447.667 348.5,447.667 340.5,447C 339.667,446.167 338.833,445.333 338,444.5C 337.333,436.833 337.333,429.167 338,421.5C 339.045,420.627 339.878,419.627 340.5,418.5 Z"/></g>
<g><path style="opacity:1" fill="#fcfcfd" d="M 378.5,418.5 C 386.174,418.334 393.841,418.5 401.5,419C 402.333,419.833 403.167,420.667 404,421.5C 404.667,429.167 404.667,436.833 404,444.5C 403.167,445.333 402.333,446.167 401.5,447C 393.5,447.667 385.5,447.667 377.5,447C 377,446.5 376.5,446 376,445.5C 375.333,437.5 375.333,429.5 376,421.5C 376.698,420.309 377.531,419.309 378.5,418.5 Z"/></g>
<g><path style="opacity:1" fill="#fcfcfd" d="M 415.5,418.5 C 423.174,418.334 430.841,418.5 438.5,419C 439.308,419.308 439.975,419.808 440.5,420.5C 441.636,428.785 441.803,437.118 441,445.5C 440.5,446 440,446.5 439.5,447C 431.5,447.667 423.5,447.667 415.5,447C 414.667,446.167 413.833,445.333 413,444.5C 412.333,436.833 412.333,429.167 413,421.5C 414.045,420.627 414.878,419.627 415.5,418.5 Z"/></g>
</svg>
